<svg width="782" height="1008" viewBox="0 0 782 1008" fill="none" xmlns="http://www.w3.org/2000/svg">
<path d="M309.954 -0.0631138C310.377 -0.0639692 310.801 -0.0648563 311.224 -0.0657736C313.225 -0.0699949 315.225 -0.0730042 317.226 -0.0742182C319.244 -0.075452 321.262 -0.0791841 323.279 -0.087367C333.098 -0.126288 342.892 -0.0361855 352.702 0.434076C352.908 0.443957 353.115 0.453838 353.328 0.464018C361.813 0.872334 370.284 1.45169 378.747 2.17303C379.072 2.20058 379.397 2.22813 379.731 2.25651C406.215 4.51721 432.616 8.33162 566.795 42.9374C568.107 43.4028 569.422 43.8615 570.737 44.3177C589.717 50.9298 608.371 58.63 626.603 67.0833C627.207 67.3628 627.811 67.641 628.416 67.9189C634.351 70.6505 640.211 73.5278 646.057 76.4459C646.396 76.6147 646.735 76.7834 647.084 76.9573C651.439 79.1281 655.741 81.374 659.997 83.7324C660.626 84.0808 661.256 84.4274 661.887 84.7728C672.279 90.4703 682.463 96.5321 692.354 103.066C692.742 103.321 693.131 103.576 693.519 103.831C700.998 108.761 708.227 114.036 715.308 119.52C715.501 119.669 715.694 119.818 715.893 119.972C718.22 121.773 720.493 123.626 722.729 125.539C723.595 126.279 724.481 126.994 725.37 127.707C727.134 129.142 728.783 130.69 730.439 132.246C731.196 132.957 731.967 133.648 732.757 134.324C733.993 135.39 735.125 136.553 736.27 137.715C736.89 138.327 737.517 138.89 738.185 139.446C739.653 140.699 740.934 142.129 742.237 143.55C743.306 144.714 744.395 145.849 745.521 146.958C746.461 147.908 747.32 148.928 748.189 149.943C748.466 150.263 748.744 150.583 749.022 150.903C756.255 159.255 762.714 168.187 768.041 177.882C768.19 178.152 768.339 178.423 768.493 178.701C776.351 193.062 781.985 209.777 782.063 226.284C782.065 226.596 782.067 226.908 782.069 227.229C782.14 240.218 782.14 240.218 781.069 245.869C781.006 246.212 780.943 246.554 780.878 246.908C777.882 262.762 771.311 277.345 761.217 289.951C760.969 290.266 760.72 290.58 760.464 290.904C758.986 292.75 757.415 294.496 755.808 296.228C755.154 296.939 754.517 297.658 753.888 298.391C752.14 300.404 750.235 302.25 748.212 303.984C747.506 304.596 746.821 305.228 746.134 305.861C744.397 307.427 742.572 308.862 740.721 310.289C740.112 310.76 739.507 311.236 738.902 311.712C735.502 314.375 731.965 316.795 728.336 319.133C728.076 319.301 727.815 319.469 727.547 319.642C705.419 333.818 680.527 342.898 655.83 351.461C641.685 356.367 627.964 361.6 614.805 368.803C614.501 368.969 614.197 369.135 613.884 369.305C599.26 377.296 585.169 386.205 571.998 396.432C571.783 396.599 571.568 396.767 571.346 396.939C566.187 400.949 561.175 405.118 556.407 409.589C555.837 410.121 555.262 410.649 554.687 411.176C551.821 413.815 549.117 416.572 546.481 419.44C546.01 419.951 545.537 420.459 545.061 420.966C543.199 422.97 541.508 425.081 539.843 427.249C539.451 427.757 539.053 428.261 538.654 428.764C528.199 442.056 520.211 458.393 522.047 475.692C523.254 485.656 526.896 494.057 533.844 501.361C534.08 501.61 534.08 501.61 534.321 501.863C536.88 504.545 539.552 506.92 542.53 509.122C542.741 509.28 542.952 509.438 543.169 509.601C551.008 515.454 559.508 520.295 568.205 524.747C568.978 525.147 569.747 525.551 570.515 525.959C574.072 527.848 577.662 529.656 581.285 531.416C581.561 531.55 581.838 531.685 582.123 531.824C585.796 533.613 589.481 535.372 593.192 537.082C598.456 539.508 603.684 542.01 608.911 544.512C609.134 544.619 609.356 544.725 609.585 544.835C615.023 547.439 620.431 550.104 625.827 552.794C626.466 553.113 627.105 553.431 627.745 553.749C632.174 555.952 636.537 558.253 640.861 560.655C641.153 560.817 641.153 560.817 641.45 560.981C653.431 567.62 665.049 574.961 675.913 583.317C676.101 583.462 676.289 583.606 676.482 583.755C678.819 585.558 681.095 587.421 683.336 589.34C684.189 590.067 685.06 590.768 685.937 591.466C689.102 594.046 692.033 596.929 694.893 599.84C695.386 600.323 695.886 600.758 696.425 601.187C697.35 601.972 698.089 602.811 698.873 603.733C699.565 604.515 700.296 605.246 701.039 605.98C702.347 607.277 703.572 608.61 704.761 610.015C705.009 610.301 705.257 610.587 705.512 610.881C707.68 613.396 709.706 616.008 711.703 618.661C712.193 619.311 712.686 619.958 713.18 620.605C715.244 623.317 717.195 626.081 719.03 628.952C719.184 629.193 719.338 629.433 719.497 629.681C722.984 635.157 726.14 640.812 728.969 646.656C729.273 647.282 729.585 647.903 729.897 648.524C738.685 666.277 743.331 686.013 745.397 705.631C745.452 706.135 745.452 706.135 745.508 706.649C746.612 717.16 746.671 728.353 745.397 738.848C745.373 739.048 745.349 739.248 745.324 739.455C743.589 753.729 740.209 767.639 734.23 780.758C734.103 781.039 733.976 781.321 733.845 781.612C728.728 792.901 721.824 803.149 713.495 812.306C713.058 812.788 712.625 813.273 712.196 813.761C709.316 817.031 706.236 820.172 702.9 822.977C702.457 823.369 702.457 823.369 702.005 823.769C678.167 844.786 647.902 855.003 541.797 866.102C540.846 866.133 539.895 866.166 538.944 866.199C532.184 866.422 525.421 866.502 518.658 866.593C518.283 866.598 518.283 866.598 517.899 866.603C509.917 866.711 501.935 866.789 493.952 866.837C493.583 866.839 493.583 866.839 493.206 866.841C488.961 866.867 484.716 866.89 480.471 866.913C456.475 867.022 456.475 867.022 432.488 867.642C432.133 867.655 431.778 867.668 431.413 867.681C401.016 868.8 369.889 871.006 296.856 896.862C296.659 896.961 296.461 897.06 296.258 897.161C290.952 899.822 285.751 902.61 280.657 905.662C279.813 906.165 278.965 906.657 278.113 907.147C273.803 909.637 269.673 912.364 265.553 915.153C264.455 915.894 263.351 916.627 262.245 917.358C259.678 919.058 257.156 920.812 254.669 922.629C254.447 922.791 254.224 922.954 253.995 923.121C248.073 927.448 242.225 931.881 236.564 936.547C236.021 936.994 235.477 937.439 234.931 937.883C232.772 939.637 230.658 941.441 228.552 943.258C228.001 943.732 227.447 944.203 226.892 944.674C224.717 946.522 222.597 948.417 220.509 950.364C219.821 951.001 219.127 951.625 218.415 952.237C216.833 953.609 215.315 955.05 213.789 956.484C212.994 957.231 212.197 957.975 211.396 958.715C208.04 961.826 204.796 965.043 201.566 968.283C200.818 969.033 200.069 969.782 199.32 970.53C198.592 971.258 197.864 971.987 197.137 972.715C196.872 972.98 196.607 973.244 196.334 973.517C194.99 974.867 193.692 976.237 192.454 977.685C191.873 978.356 191.251 978.977 190.614 979.595C189.597 980.601 188.643 981.634 187.712 982.721C186.601 983.981 185.443 985.198 184.294 986.423C183.352 987.431 182.42 988.442 181.522 989.49C179.084 992.298 176.361 994.6 173.398 996.824C173.129 997.026 172.86 997.228 172.583 997.436C170.476 998.961 168.234 1000.24 165.954 1001.48C165.616 1001.67 165.277 1001.85 164.929 1002.04C160.855 1004.19 156.518 1005.62 152.053 1006.7C151.806 1006.76 151.558 1006.82 151.303 1006.88C147.13 1007.84 143.016 1008.12 138.754 1008.1C138.509 1008.1 138.263 1008.1 138.011 1008.09C134.226 1008.08 130.572 1007.91 126.869 1007.07C126.589 1007.01 126.308 1006.95 126.019 1006.88C121.764 1005.92 117.775 1004.61 113.841 1002.72C113.597 1002.61 113.352 1002.49 113.1 1002.37C105.046 998.457 97.9072 992.756 92.4378 985.648C92.3147 985.488 92.1915 985.328 92.0647 985.164C82.5086 972.618 78.7471 956.785 80.8121 941.221C82.9092 927.137 89.9315 916.168 99.5007 906.003C100.3 905.153 101.085 904.292 101.86 903.42C103.156 901.97 104.483 900.55 105.815 899.132C106.023 898.911 106.23 898.689 106.444 898.461C107.402 897.445 108.366 896.439 109.36 895.459C110.062 894.764 110.719 894.05 111.357 893.296C112.885 891.54 114.54 889.91 116.186 888.266C116.531 887.92 116.877 887.573 117.223 887.227C117.944 886.505 118.665 885.784 119.387 885.063C120.306 884.145 121.224 883.225 122.141 882.305C122.853 881.591 123.567 880.878 124.28 880.165C124.618 879.826 124.957 879.488 125.295 879.149C126.953 877.486 128.615 875.841 130.405 874.319C131.127 873.696 131.788 873.02 132.453 872.337C133.531 871.23 134.656 870.208 135.823 869.197C136.949 868.203 138.034 867.164 139.122 866.129C140.618 864.705 142.128 863.307 143.688 861.953C144.379 861.351 145.056 860.733 145.733 860.114C146.807 859.142 147.903 858.211 149.029 857.301C150.209 856.346 151.344 855.36 152.46 854.332C153.83 853.072 155.24 851.882 156.688 850.712C157.65 849.928 158.593 849.124 159.537 848.317C161.085 846.998 162.665 845.727 164.27 844.478C165.43 843.573 166.574 842.651 167.711 841.716C170.306 839.582 172.973 837.555 175.668 835.549C176.848 834.67 178.015 833.777 179.176 832.873C183.116 829.827 187.203 826.972 191.279 824.112C191.79 823.753 192.301 823.393 192.811 823.032C197.121 819.983 201.504 817.076 205.967 814.256C206.851 813.695 207.732 813.129 208.612 812.561C219.567 805.496 230.975 799.119 242.572 793.175C242.867 793.023 242.867 793.023 243.168 792.869C250.085 789.318 257.071 785.99 264.213 782.918C264.901 782.622 265.589 782.325 266.277 782.028C291.874 770.985 318.852 763.154 430.666 750.671C431.613 750.641 432.56 750.608 433.508 750.575C439.892 750.362 446.28 750.273 452.667 750.18C452.899 750.177 453.131 750.174 453.37 750.17C461.168 750.057 468.967 749.982 476.766 749.937C477.145 749.934 477.145 749.934 477.532 749.932C481.922 749.906 486.312 749.883 490.702 749.861C515.186 749.745 515.186 749.745 539.66 749.131C540.03 749.119 540.4 749.106 540.781 749.092C586.338 750.049 586.338 750.049 626.767 734.114C630.37 729.477 629.519 720.828 628.851 715.275C628.582 713.391 628.232 711.528 627.833 709.667C627.777 709.4 627.72 709.133 627.662 708.858C626.163 702.004 623.169 695.325 618.838 689.799C618.561 689.427 618.561 689.427 618.279 689.048C614.825 684.58 610.595 680.485 606.037 677.157C605.457 676.729 604.886 676.29 604.315 675.848C596.976 670.195 588.851 665.574 580.684 661.238C580.42 661.097 580.156 660.956 579.884 660.811C571.75 656.48 563.494 652.364 555.118 648.522C553.028 647.562 550.958 646.565 548.889 645.561C546.174 644.245 543.448 642.96 540.707 641.7C534.687 638.924 528.749 635.977 522.804 633.045C522.14 632.719 521.477 632.392 520.813 632.066C516.692 630.039 512.641 627.911 508.623 625.686C507.802 625.234 506.977 624.791 506.15 624.35C501.934 622.095 497.847 619.652 493.778 617.145C492.764 616.521 491.747 615.903 490.725 615.292C485.485 612.151 480.453 608.661 475.528 605.048C475.335 604.907 475.143 604.766 474.945 604.621C471.943 602.413 469.03 600.111 466.154 597.741C465.659 597.335 465.161 596.933 464.663 596.532C462.843 595.066 461.112 593.532 459.404 591.939C458.719 591.303 458.018 590.688 457.31 590.078C456.064 588.988 454.883 587.847 453.716 586.675C453.511 586.471 453.307 586.266 453.096 586.055C452.666 585.626 452.238 585.196 451.809 584.766C451.16 584.115 450.509 583.465 449.857 582.815C449.437 582.394 449.018 581.974 448.598 581.553C448.406 581.362 448.215 581.171 448.018 580.975C446.684 579.632 445.431 578.234 444.198 576.798C443.893 576.448 443.587 576.097 443.281 575.747C441.378 573.552 439.546 571.321 437.806 568.994C437.499 568.584 437.191 568.174 436.882 567.765C432.991 562.611 429.434 557.248 426.207 551.653C426.088 551.447 425.97 551.242 425.848 551.031C414.127 530.607 407.45 507.712 405.424 484.287C405.395 483.973 405.365 483.66 405.335 483.337C404.99 479.078 405.037 474.8 405.036 470.531C405.036 470.32 405.036 470.109 405.036 469.891C405.033 463.261 405.176 456.721 406.044 450.139C406.096 449.725 406.149 449.311 406.201 448.896C408.946 427.328 416.038 406.143 426.517 387.119C426.669 386.842 426.822 386.565 426.978 386.28C435.787 370.316 446.563 355.387 458.947 342.003C459.583 341.31 460.202 340.608 460.813 339.893C461.869 338.672 463.011 337.547 464.167 336.42C464.809 335.763 465.411 335.099 466.01 334.404C467.158 333.079 468.373 331.835 469.615 330.6C469.821 330.392 470.027 330.185 470.239 329.971C471.464 328.747 472.726 327.588 474.036 326.457C474.774 325.807 475.462 325.115 476.148 324.41C477.238 323.308 478.348 322.262 479.524 321.255C480.307 320.576 481.066 319.874 481.829 319.171C483.238 317.884 484.691 316.67 486.176 315.472C486.974 314.812 487.737 314.129 488.498 313.428C489.847 312.199 491.254 311.071 492.696 309.953C493.929 308.995 495.137 308.012 496.335 307.01C499.113 304.687 501.987 302.528 504.915 300.399C505.765 299.777 506.605 299.142 507.443 298.505C509.414 297.01 511.41 295.559 513.436 294.141C513.704 293.953 513.972 293.766 514.249 293.572C517.213 291.505 520.212 289.49 523.22 287.487C523.504 287.298 523.788 287.109 524.08 286.914C528.425 284.02 532.785 281.162 537.256 278.465C537.579 278.27 537.902 278.076 538.234 277.875C546.367 272.984 554.598 268.284 563.003 263.874C563.204 263.769 563.405 263.663 563.612 263.555C579.95 254.99 596.627 248.157 614.046 242.121C635.723 234.786 635.723 234.786 656.571 225.413C657.302 225.069 657.302 225.069 657.922 225.069C657.023 223.475 655.853 222.405 654.481 221.206C653.672 220.494 652.882 219.767 652.095 219.03C650.173 217.231 648.201 215.526 646.135 213.893C645.837 213.657 645.837 213.657 645.533 213.416C636.872 206.558 627.702 200.308 618.217 194.646C617.937 194.479 617.657 194.311 617.368 194.138C609.114 189.224 600.67 184.696 592.109 180.345C591.271 179.918 590.435 179.488 589.598 179.059C585.052 176.739 580.42 174.621 575.765 172.531C574.392 171.914 573.022 171.292 571.653 170.666C560.987 165.803 550.103 161.475 539.118 157.393C538.764 157.262 538.764 157.262 538.402 157.127C519.489 150.101 500.269 144.054 480.801 138.767C480.508 138.687 480.215 138.607 479.913 138.525C452.451 131.039 424.396 125.463 329.736 116.726C329.438 116.722 329.14 116.719 328.833 116.715C296.906 116.37 265.056 118.698 142.069 145.907C141.744 146.015 141.419 146.122 141.084 146.233C131.41 149.442 121.782 152.747 112.29 156.462C111.849 156.635 111.849 156.635 111.398 156.811C104.128 159.659 96.8941 162.586 89.7236 165.678C89.4513 165.795 89.179 165.913 88.8984 166.034C86.8137 166.932 84.7294 167.832 82.6486 168.74C78.4512 170.567 74.2759 171.96 69.7936 172.915C69.5354 172.97 69.2773 173.026 69.0113 173.083C54.4285 176.033 38.3488 172.716 25.9899 164.537C13.9865 156.363 5.44965 144.555 1.62836 130.54C1.5415 130.227 1.5415 130.226 1.45289 129.907C0.298784 125.413 -0.156457 120.895 -0.121485 116.266C-0.116487 115.484 -0.12148 114.702 -0.127392 113.919C-0.133691 109.216 0.458385 104.596 1.72529 100.059C1.80277 99.78 1.88024 99.5012 1.96006 99.2139C3.54854 93.7557 5.87256 88.5668 8.99547 83.8188C9.11848 83.6312 9.24149 83.4435 9.36822 83.2501C24.4081 60.6262 55.2383 52.7334 92.4378 39.1154C92.7332 39.0121 93.0286 38.9088 93.333 38.8024C109.606 33.1171 126.063 28.1339 142.689 23.5934C143.132 23.472 143.132 23.472 143.584 23.3482C176.953 14.2047 211.19 7.87542 284.603 0.717838C284.942 0.69892 285.28 0.680002 285.629 0.660511C293.738 0.212849 301.833 -0.0512747 309.954 -0.0631138Z" fill="url(#paint0_linear_6066_6252)"/>
<defs>
<linearGradient id="paint0_linear_6066_6252" x1="390.984" y1="-0.095459" x2="390.984" y2="1008.1" gradientUnits="userSpaceOnUse">
<stop stop-color="#7200E6"/>
<stop offset="1" stop-color="#0817DE"/>
</linearGradient>
</defs>
</svg>
