<svg xmlns="http://www.w3.org/2000/svg" viewBox="0 0 3133.34 1234.52"><defs><style>.cls-1{fill:#ff4800;}.cls-2{fill:#31bce6;}.cls-3{fill:none;}</style></defs><g id="Calque_2" data-name="Calque 2"><g id="Calque_1-2" data-name="Calque 1"><rect class="cls-1" width="269.83" height="984.79"/><path class="cls-1" d="M2538.2,608.3q0,153-109.69,264.07T2168.82,983.43q-24.56,0-72.17-5V708h65.29v-.2a7.74,7.74,0,0,0,1.08.05q41.82,0,71.78-31t29.94-73.6q0-42.56-31-72.52t-74.29-29.94q-103.91,0-103.89,143.61v590.13H1785.73V634.26q0-165.19,86.58-269.08,49.77-59.88,126.6-95.23t157.62-35.35q160.92,0,271.29,108.21T2538.2,608.3Z"/><path class="cls-1" d="M3049.61,233.51q-144.48,0-226,79.28-46.68,45.21-61.87,91.14t-21.12,159.31q-4.44,69.64-33,97.43t-95.22,27.79h-12.59V981.88h38.52q143,0,220.81-45.94,146.71-88.17,166-302.31,5.93-64.47,27.78-86.33t80.4-21.85V233.51Z"/><path class="cls-1" d="M1678.73,437c.13-.75.13-1.5.26-2.38l8.26-197.39c1.13-26.92-27.43-44.83-51.23-32.18l-128.12,68a333.22,333.22,0,0,0-44.59-17.78c-35.94-11.52-74.14-17.41-114.72-17.41q-163.81,0-275.66,108.46a392.05,392.05,0,0,0-46.22,53.73,394.14,394.14,0,0,0-43.58-51.47Q873.42,238,719.62,237.9c-42.71,0-82.66,5.64-120,16.66a363.9,363.9,0,0,0-40.7,14.65L422.29,196.7c-23.8-12.65-52.35,5.26-51.23,32.18l8.27,197.39c.13.75.13,1.5.25,2.25q-47.34,81.92-47.22,185.11,0,155.93,111.72,266.52t269,110.47q157.24,0,268.65-110.09a405.3,405.3,0,0,0,45.72-53.86,410,410,0,0,0,45.46,53.48q111.78,110.46,269.15,110.47t268.65-110.09q111.21-110.28,111.34-266.9Q1722.07,516.7,1678.73,437Zm-966,375.85C603,812.89,514.22,724,514.22,614.26S603,415.87,712.73,415.87s198.51,88.8,198.51,198.39S822.32,812.89,712.73,812.89Zm314.49-2.13c-9.4,0-24.55-9.76-37.33-22.16-15-14.41-26.8-32.19-22.42-41.71,8.27-17.41,59.75-9.27,59.75-9.14,0-.13,51.47-8.27,59.61,9.14a11.5,11.5,0,0,1,1,4.76C1087.83,771.44,1046.13,810.76,1027.22,810.76Zm314.48,2.13c-109.71,0-198.51-88.92-198.51-198.63S1232,415.87,1341.7,415.87s198.51,88.8,198.51,198.39S1451.29,812.89,1341.7,812.89Z"/><path class="cls-2" d="M1086.55,747.08c-8.19-17.38-59.34-9.23-59.37-9.2s-51.19-8.18-59.37,9.2,38.89,63.49,59.37,63.49h0C1047.65,810.57,1094.74,764.49,1086.55,747.08Z"/><path class="cls-2" d="M2664.78,70.32c-16.41-17-36.45-25.55-60.5-25.55-24.67,0-45.33,8.4-62,25.43S2517.24,108,2517.24,133q0,35.51,23.3,59.61c15.65,16.16,35.69,24.93,60.49,26.3v26.68q40.39-11.83,64.25-42.21t23.92-69.63Q2689.2,95.93,2664.78,70.32Z"/><path class="cls-3" d="M1342.58,462.34c-.38-.5-.75-.88-1.13-1.38"/><path class="cls-2" d="M1342.58,730.11a13.94,13.94,0,0,1-1.13,1.38,13.92,13.92,0,0,1-1.12-1.38q-48.11-60.3-53.86-119.36L1317,596.22,1286,586.08q3.19-62.37,54.36-123.74c.37-.5.75-.88,1.12-1.38.38.5.75.88,1.13,1.38Q1451.92,593.47,1342.58,730.11Z"/><path class="cls-3" d="M1341.45,731.49a13.92,13.92,0,0,1-1.12-1.38"/><path class="cls-3" d="M723.25,730.11c-.38.5-.75,1-1,1.38"/><path class="cls-2" d="M723.25,730.11c-.38.5-.75,1-1,1.38a3.87,3.87,0,0,1-1.13-1.38q-48.29-60.3-54-119.36l30.56-14.53-31.06-10.14c2.25-41.58,20.29-82.91,54.48-123.74a5.28,5.28,0,0,1,1.13-1.38,9.21,9.21,0,0,0,1,1.38Q832.59,593.47,723.25,730.11Z"/><path class="cls-3" d="M722.25,461a5.49,5.49,0,0,0-1.13,1.38"/></g></g></svg>