<svg width="194" height="111" viewBox="0 0 194 111" fill="none" xmlns="http://www.w3.org/2000/svg">
<g clip-path="url(#clip0_278_1443)">
<path d="M187 34C187 33.89 187 33.78 187 33.67L188.2 6.21003C188.236 5.35912 188.046 4.51388 187.65 3.75966C187.255 3.00545 186.667 2.36896 185.947 1.91449C185.227 1.46001 184.399 1.20364 183.548 1.17125C182.697 1.13886 181.853 1.33161 181.1 1.73003L163.29 11.19C161.29 10.2205 159.225 9.39179 157.11 8.71003C151.935 7.07677 146.536 6.26359 141.11 6.30003C125.943 6.30003 113.183 11.3234 102.83 21.37C100.464 23.653 98.3149 26.1503 96.41 28.83C94.5938 26.2781 92.5667 23.883 90.35 21.67C80.2233 11.4167 68.0367 6.29337 53.79 6.30003C48.1516 6.26071 42.5371 7.03536 37.12 8.60003C35.1968 9.16789 33.3099 9.8525 31.47 10.65L12.49 0.570033C11.737 0.169135 10.8913 -0.0256033 10.0388 0.00554772C9.18628 0.0366988 8.35712 0.292632 7.63535 0.747419C6.91358 1.20221 6.32484 1.83969 5.92877 2.59528C5.53271 3.35087 5.34339 4.19772 5.38 5.05003L6.53 32.47C6.53 32.57 6.53 32.67 6.53 32.77C2.09858 40.6076 -0.155991 49.4878 3.0268e-06 58.49C-0.0969755 65.3922 1.2303 72.2403 3.89893 78.6065C6.56756 84.9726 10.5202 90.7201 15.51 95.49C20.3696 100.454 26.1892 104.375 32.6141 107.016C39.039 109.657 45.9345 110.961 52.88 110.85C59.8148 110.966 66.7005 109.669 73.1182 107.038C79.5358 104.408 85.3511 100.499 90.21 95.55C92.5367 93.2465 94.6612 90.7473 96.56 88.08C98.4496 90.7272 100.564 93.2064 102.88 95.49C107.74 100.453 113.56 104.374 119.985 107.015C126.41 109.655 133.305 110.96 140.25 110.85C147.185 110.967 154.071 109.67 160.489 107.04C166.907 104.41 172.722 100.5 177.58 95.55C182.557 90.7625 186.495 85.0012 189.148 78.6252C191.801 72.2492 193.112 65.3951 193 58.49C193.107 49.9502 191.042 41.5233 187 34ZM52.84 86.16C47.3848 86.162 42.0515 84.5462 37.5147 81.5168C32.9778 78.4875 29.4413 74.1808 27.3523 69.1414C25.2633 64.102 24.7157 58.5562 25.7787 53.2056C26.8418 47.8549 29.4677 42.9397 33.3245 39.0816C37.1812 35.2234 42.0955 32.5957 47.4457 31.5307C52.796 30.4657 58.3419 31.0113 63.3821 33.0985C68.4223 35.1856 72.7303 38.7206 75.7612 43.2564C78.7922 47.7921 80.41 53.1248 80.41 58.58C80.41 65.893 77.5056 72.9065 72.3355 78.0785C67.1655 83.2505 60.1529 86.1574 52.84 86.16ZM104 80.1L103.81 80.37L103.62 80.64L102.05 82.47C101.83 82.69 101.61 82.91 101.38 83.11L101.04 83.42C100.81 83.62 100.58 83.82 100.34 84L99.34 84.76C99.11 84.91 98.88 85.05 98.66 85.17L97.28 85.76C97.1992 85.7894 97.1153 85.8095 97.03 85.82L96.57 85.87C93.71 85.87 87.14 79.44 88.28 77.01C89.42 74.58 96.57 75.72 96.57 75.72C96.57 75.72 103.72 74.58 104.86 77.01C104.95 77.2112 104.994 77.4297 104.99 77.65L104 80.1ZM140.2 86.16C134.745 86.16 129.413 84.5425 124.877 81.512C120.342 78.4814 116.807 74.174 114.719 69.1344C112.632 64.0948 112.086 58.5494 113.15 53.1994C114.214 47.8494 116.841 42.9352 120.698 39.078C124.555 35.2209 129.469 32.5942 134.819 31.53C140.169 30.4658 145.715 31.012 150.754 33.0994C155.794 35.1869 160.101 38.7219 163.132 43.2574C166.162 47.7929 167.78 53.1252 167.78 58.58C167.781 62.2023 167.069 65.7892 165.683 69.136C164.298 72.4827 162.266 75.5237 159.705 78.085C157.144 80.6463 154.103 82.6777 150.756 84.0633C147.409 85.4489 143.822 86.1613 140.2 86.16Z" fill="#31BCE6"/>
<path d="M104.81 77C103.67 74.57 96.53 75.71 96.52 75.71C96.51 75.71 89.38 74.58 88.23 77C87.08 79.42 93.66 85.86 96.52 85.86C99.38 85.87 106 79.44 104.81 77Z" fill="#FF4800"/>
<path d="M140.33 74.67L140.18 74.8601C140.121 74.8014 140.068 74.7378 140.02 74.67C135.56 69.09 133.063 63.5601 132.53 58.0801L136.78 56.0801L132.46 54.68C132.773 48.8867 135.293 43.1534 140.02 37.48L140.18 37.3C140.18 37.36 140.28 37.42 140.33 37.48C150.45 49.62 150.45 62.0167 140.33 74.67Z" fill="#FF4800"/>
<path d="M54.3 74.67L54.15 74.86C54.15 74.8 54.04 74.74 53.99 74.67C49.5367 69.09 47.0433 63.56 46.51 58.08L50.76 56.08L46.43 54.68C46.7433 48.8934 49.2667 43.1567 54 37.47L54.16 37.29L54.31 37.47C64.4367 49.6167 64.4333 62.0167 54.3 74.67Z" fill="#FF4800"/>
</g>
<defs>
<clipPath id="clip0_278_1443">
<rect width="193.04" height="110.86" fill="white"/>
</clipPath>
</defs>
</svg>
